<svg width="500" height="500" viewBox="0 0 500 500" fill="none" xmlns="http://www.w3.org/2000/svg">
    <g clip-path="url(#clip0_10_2)">
    <path d="M458.333 250H406.666C397.562 249.98 388.701 252.944 381.44 258.437C374.179 263.93 368.916 271.65 366.458 280.417L317.5 454.583C317.184 455.665 316.526 456.615 315.625 457.292C314.723 457.968 313.627 458.333 312.5 458.333C311.373 458.333 310.276 457.968 309.375 457.292C308.473 456.615 307.815 455.665 307.5 454.583L192.5 45.4166C192.184 44.3348 191.526 43.3844 190.625 42.7083C189.723 42.0321 188.627 41.6666 187.5 41.6666C186.373 41.6666 185.276 42.0321 184.375 42.7083C183.473 43.3844 182.815 44.3348 182.5 45.4166L133.541 219.583C131.093 228.316 125.862 236.011 118.643 241.5C111.424 246.99 102.611 249.974 93.5415 250H41.6665" stroke="#9334E9" stroke-width="50" stroke-linecap="round" stroke-linejoin="round"/>
    </g>
    <defs>
    <clipPath id="clip0_10_2">
    <rect width="500" height="500" fill="white"/>
    </clipPath>
    </defs>
    </svg>
    